# Blender v2.80 (sub 74) OBJ File: ''
# www.blender.org
mtllib Cactus08.mtl
o Cactus08
v 0.006059 -0.018538 0.006855
v -0.007926 -0.014968 -0.007274
v 0.006059 -0.015821 -0.012007
v 0.020044 -0.014968 -0.007274
v 0.024806 -0.015121 0.006727
v 0.020044 -0.013922 0.020678
v 0.006059 -0.014420 0.025460
v -0.007926 -0.013922 0.020678
v -0.012687 -0.015121 0.006727
v 0.002747 2.690611 0.009694
v -0.014313 2.690743 0.024929
v 0.001416 2.694933 0.030205
v 0.017185 2.690732 0.025056
v 0.022464 2.694933 0.009328
v 0.017313 2.690743 -0.006445
v 0.001585 2.694943 -0.011721
v -0.014186 2.690751 -0.006572
v -0.019462 2.694943 0.009158
v 0.006350 2.448038 -0.090568
v -0.058100 2.638657 -0.058282
v 0.006387 2.640671 -0.079488
v 0.006271 2.677195 -0.048834
v 0.047637 2.674786 -0.034871
v 0.102827 2.447709 0.006691
v 0.070702 2.638608 -0.057762
v 0.091909 2.640605 0.006726
v 0.061266 2.677159 0.006608
v 0.047303 2.674758 0.047976
v 0.005565 2.447719 0.103171
v 0.070181 2.638563 0.071041
v 0.005693 2.640605 0.092247
v 0.005825 2.677159 0.061605
v -0.035543 2.674786 0.047640
v -0.090912 2.448056 0.005911
v -0.058622 2.638608 0.070520
v -0.079828 2.640671 0.006031
v -0.049172 2.677206 0.006162
v -0.035208 2.674815 -0.035205
v -0.066408 2.448133 -0.066652
v -0.053354 -0.009945 -0.052922
v -0.089792 0.107985 0.002119
v -0.065830 0.105294 -0.069719
v 0.006059 -0.010686 -0.072712
v 0.085276 -0.007721 0.006451
v 0.065472 -0.009945 -0.052922
v 0.006059 -0.004759 0.085612
v 0.065472 -0.005499 0.065822
v -0.073158 -0.007721 0.006451
v -0.053354 -0.005499 0.065822
v 0.077948 0.110675 0.073957
v 0.095134 0.323756 -0.007129
v 0.072617 0.329734 0.059360
v 0.006059 0.315787 -0.095778
v -0.060994 0.317778 -0.073616
v -0.060498 0.329734 0.059359
v 0.006059 0.111570 0.097903
v 0.006059 0.331727 0.081522
v 0.101911 0.107985 0.002119
v 0.073113 0.317778 -0.073616
v -0.083015 0.323756 -0.007129
v -0.065829 0.110675 0.073957
v 0.077948 0.105294 -0.069719
v 0.074136 0.454947 0.045701
v 0.097146 0.445594 -0.021959
v -0.062493 0.436242 -0.089619
v 0.006060 0.433121 -0.112174
v 0.006060 0.458067 0.068255
v -0.062016 0.454949 0.045700
v 0.074612 0.436239 -0.089621
v -0.085026 0.445596 -0.021959
v 0.061768 0.663307 0.008554
v 0.080325 0.663490 -0.046958
v -0.049640 0.663643 -0.102468
v 0.006053 0.663712 -0.120973
v 0.006056 0.663238 0.027058
v -0.049658 0.663287 0.008555
v 0.061747 0.663664 -0.102469
v -0.068216 0.663462 -0.046957
v 0.005513 1.010579 -0.089328
v -0.059057 1.007606 -0.068092
v 0.091360 1.003154 -0.003794
v 0.069714 0.996460 0.060208
v 0.070068 1.009285 -0.067855
v -0.058794 0.994773 0.060085
v 0.005452 0.993479 0.081500
v -0.080395 1.000904 -0.004033
v -0.006231 1.446724 -0.078452
v -0.064838 1.616623 -0.058760
v -0.010411 1.616623 -0.076664
v 0.080828 1.332125 0.011243
v 0.059492 1.332172 0.074368
v -0.003203 1.329022 -0.073224
v -0.066555 1.327513 -0.052330
v -0.003678 1.330672 0.095279
v -0.066728 1.328761 0.074065
v 0.060030 1.330945 -0.051990
v -0.087708 1.327569 0.010815
v 0.056092 1.456716 0.068441
v 0.077422 1.453783 0.005631
v -0.069389 1.446141 -0.057682
v -0.006907 1.456145 0.089302
v -0.069736 1.453210 0.068226
v 0.056756 1.449667 -0.057282
v -0.090561 1.449086 0.005222
v -0.063663 1.717308 -0.059823
v -0.010362 1.716530 -0.077338
v 0.043877 1.618169 -0.058384
v 0.061745 1.620766 -0.004074
v 0.042804 1.715875 -0.059386
v 0.060301 1.715817 -0.006142
v 0.042330 1.716240 0.046970
v -0.010969 1.622838 0.068074
v -0.010909 1.716999 0.064529
v 0.043395 1.622838 0.050125
v -0.064009 1.717646 0.046623
v -0.081570 1.717711 -0.006666
v -0.065195 1.621281 0.049837
v -0.083126 1.618694 -0.004517
v 0.088405 2.059040 -0.000649
v 0.065494 2.224138 -0.058862
v 0.003137 2.226258 -0.079923
v -0.001456 2.063558 -0.091242
v -0.069230 2.064899 -0.068925
v -0.069835 2.061842 0.066461
v -0.002234 2.059479 0.089278
v 0.066124 2.061196 -0.068431
v -0.092095 2.063989 -0.001315
v 0.065562 2.058129 0.066965
v 0.064941 2.221120 0.065999
v 0.086031 2.222085 0.003646
v -0.059399 2.227372 -0.059355
v -0.059921 2.224382 0.065550
v 0.002421 2.222256 0.086588
v -0.080473 2.226418 0.003019
v 0.078912 2.447869 -0.066049
v 0.078307 2.447635 0.079239
v -0.066982 2.447888 0.078670
v 0.006059 0.104399 -0.093665
vt 0.547547 0.834963
vt 0.519883 0.821137
vt 0.538318 0.807297
vt 0.561372 0.807297
vt 0.575213 0.825733
vt 0.575213 0.848788
vt 0.556776 0.862628
vt 0.533724 0.862628
vt 0.519882 0.844190
vt 0.564528 0.924597
vt 0.555197 0.909540
vt 0.568062 0.909541
vt 0.579586 0.915262
vt 0.579586 0.928128
vt 0.573863 0.939652
vt 0.560996 0.939652
vt 0.549474 0.933929
vt 0.549474 0.921063
vt 0.292123 0.796131
vt 0.350236 0.854229
vt 0.292123 0.854229
vt 0.292123 0.917455
vt 0.350236 0.981532
vt 0.292123 0.981532
vt 0.243497 0.981532
vt 0.243470 0.917455
vt 0.185040 0.796131
vt 0.243445 0.854229
vt 0.185040 0.854229
vt 0.185040 0.917455
vt 0.185040 0.981532
vt 0.138824 0.981532
vt 0.138824 0.917455
vt 0.086357 0.796131
vt 0.138824 0.854229
vt 0.086357 0.854229
vt 0.086357 0.917455
vt 0.086357 0.981532
vt 0.031812 0.981532
vt 0.031812 0.917455
vt 0.408250 0.796131
vt 0.467709 0.854229
vt 0.408250 0.854229
vt 0.031812 0.854229
vt 0.408250 0.917455
vt 0.467709 0.981532
vt 0.408250 0.981532
vt 0.350236 0.917455
vt 0.350236 0.796131
vt 0.350236 0.080906
vt 0.408250 0.141781
vt 0.350236 0.141781
vt 0.292123 0.080906
vt 0.252660 0.015067
vt 0.292123 0.015067
vt 0.350236 0.015067
vt 0.185040 0.080906
vt 0.138824 0.015067
vt 0.185040 0.015067
vt 0.252202 0.080906
vt 0.086357 0.080906
vt 0.031812 0.015067
vt 0.086357 0.015067
vt 0.138824 0.080906
vt 0.408250 0.080906
vt 0.408250 0.015067
vt 0.467709 0.015067
vt 0.467709 0.080906
vt 0.138824 0.141781
vt 0.185040 0.206539
vt 0.138824 0.206539
vt 0.292123 0.206539
vt 0.350236 0.206539
vt 0.031812 0.206539
vt 0.086357 0.141781
vt 0.086357 0.206539
vt 0.185040 0.141781
vt 0.249214 0.206539
vt 0.408250 0.206539
vt 0.467709 0.141781
vt 0.467709 0.206539
vt 0.251692 0.141781
vt 0.138824 0.268893
vt 0.185040 0.268893
vt 0.350236 0.268893
vt 0.292123 0.268893
vt 0.086357 0.268893
vt 0.031812 0.268893
vt 0.248946 0.268893
vt 0.408250 0.268893
vt 0.467709 0.268893
vt 0.138824 0.320841
vt 0.185040 0.320841
vt 0.350236 0.320841
vt 0.292123 0.320841
vt 0.086357 0.320841
vt 0.031812 0.320841
vt 0.249529 0.320841
vt 0.408250 0.320841
vt 0.467709 0.320841
vt 0.292123 0.378902
vt 0.350236 0.378902
vt 0.185040 0.378902
vt 0.138824 0.378902
vt 0.245094 0.378902
vt 0.031812 0.378902
vt 0.086357 0.378902
vt 0.408250 0.378902
vt 0.467709 0.378902
vt 0.292123 0.489346
vt 0.350236 0.548189
vt 0.292123 0.548189
vt 0.185040 0.433278
vt 0.138824 0.433278
vt 0.292123 0.433278
vt 0.350236 0.433278
vt 0.086357 0.433278
vt 0.031812 0.433278
vt 0.244098 0.433278
vt 0.467709 0.433278
vt 0.408250 0.433278
vt 0.138824 0.489346
vt 0.185040 0.489346
vt 0.350236 0.489346
vt 0.086357 0.489346
vt 0.031812 0.489346
vt 0.244487 0.489346
vt 0.408250 0.489346
vt 0.350236 0.609034
vt 0.292123 0.609034
vt 0.467709 0.489346
vt 0.244929 0.548189
vt 0.185040 0.548189
vt 0.244739 0.609034
vt 0.185040 0.609034
vt 0.138824 0.609034
vt 0.086357 0.548189
vt 0.086357 0.609034
vt 0.138824 0.548189
vt 0.031812 0.609034
vt 0.408250 0.609034
vt 0.467709 0.548189
vt 0.467709 0.609034
vt 0.408250 0.548189
vt 0.031812 0.548189
vt 0.185040 0.671164
vt 0.243157 0.732572
vt 0.292123 0.732572
vt 0.292123 0.671164
vt 0.350236 0.671164
vt 0.031812 0.671164
vt 0.086357 0.671164
vt 0.243554 0.671164
vt 0.408250 0.671164
vt 0.138824 0.671164
vt 0.467709 0.671164
vt 0.138824 0.732572
vt 0.185040 0.732572
vt 0.350236 0.732572
vt 0.031812 0.732572
vt 0.086357 0.732572
vt 0.408250 0.732572
vt 0.467709 0.732572
vt 0.243204 0.796131
vt 0.138824 0.796131
vt 0.467709 0.796131
vt 0.031812 0.080906
vt 0.031812 0.141781
vt 0.292123 0.141781
vt 0.467709 0.917455
vt 0.031812 0.796131
vn -0.0000 -0.9993 0.0374
vn -0.2125 -0.9611 -0.1767
vn 0.0000 -0.9833 -0.1819
vn 0.2125 -0.9611 -0.1767
vn 0.2185 -0.9751 0.0365
vn 0.2125 -0.9452 0.2480
vn -0.0000 -0.9670 0.2549
vn -0.2125 -0.9452 0.2480
vn -0.2185 -0.9751 0.0365
vn -0.0065 1.0000 -0.0021
vn -0.2070 0.9566 0.2050
vn -0.0212 0.9847 0.1731
vn 0.1712 0.9684 0.1812
vn 0.1235 0.9923 0.0119
vn 0.1607 0.9743 -0.1581
vn -0.0173 0.9901 -0.1396
vn -0.1920 0.9646 -0.1807
vn -0.1900 0.9817 0.0132
vn 0.0052 0.1088 -0.9940
vn -0.6622 0.3403 -0.6676
vn 0.0038 0.5378 -0.8430
vn -0.0091 0.8200 -0.5722
vn 0.4833 0.7336 -0.4777
vn 0.9958 0.0919 0.0050
vn 0.6690 0.3371 -0.6625
vn 0.8442 0.5361 0.0038
vn 0.5658 0.8245 -0.0084
vn 0.4869 0.7247 0.4876
vn -0.0030 0.0925 0.9957
vn 0.6638 0.3341 0.6691
vn -0.0030 0.5361 0.8441
vn 0.0126 0.8046 0.5937
vn -0.5022 0.7066 0.4985
vn -0.9940 0.1095 -0.0030
vn -0.6678 0.3373 0.6635
vn -0.8430 0.5379 -0.0032
vn -0.6034 0.7973 0.0116
vn -0.4864 0.7194 -0.4959
vn -0.7023 0.0740 -0.7081
vn -0.5668 -0.6188 -0.5439
vn -0.9627 -0.2616 -0.0685
vn -0.6192 -0.1774 -0.7649
vn 0.0000 -0.8235 -0.5673
vn 0.5978 -0.8011 0.0301
vn 0.5668 -0.6188 -0.5439
vn -0.0000 -0.7786 0.6276
vn 0.5670 -0.5756 0.5892
vn -0.5978 -0.8011 0.0301
vn -0.5670 -0.5756 0.5892
vn 0.7723 -0.1066 0.6263
vn 0.9832 0.0134 0.1823
vn 0.5672 0.0656 0.8210
vn -0.0000 -0.0836 -0.9965
vn -0.8239 -0.0473 -0.5647
vn -0.5672 0.0656 0.8210
vn 0.0000 -0.1793 0.9838
vn -0.0000 0.0827 0.9966
vn 0.9627 -0.2616 -0.0685
vn 0.8239 -0.0473 -0.5647
vn -0.9832 0.0134 0.1823
vn -0.7723 -0.1067 0.6263
vn 0.6192 -0.1774 -0.7649
vn 0.7080 0.0824 0.7014
vn 0.9998 0.0201 -0.0046
vn -0.7042 -0.0374 -0.7090
vn 0.0000 -0.0468 -0.9989
vn 0.0000 0.1182 0.9930
vn -0.7080 0.0822 0.7014
vn 0.7042 -0.0371 -0.7090
vn -0.9998 0.0197 -0.0046
vn 0.8279 0.0228 0.5604
vn 0.9819 0.0183 -0.1884
vn -0.5616 0.0109 -0.8273
vn 0.0007 0.0159 -0.9999
vn 0.0008 0.0233 0.9997
vn -0.8279 0.0158 0.5607
vn 0.5631 0.0141 -0.8263
vn -0.9818 0.0111 -0.1898
vn 0.0810 0.0486 -0.9955
vn -0.7054 0.0227 -0.7085
vn 0.9942 0.0087 0.1070
vn 0.7059 -0.0274 0.7078
vn 0.8229 0.0415 -0.5666
vn -0.5686 -0.0465 0.8213
vn 0.1059 -0.0550 0.9929
vn -0.9967 -0.0189 0.0787
vn 0.0023 -0.0016 -1.0000
vn -0.6247 0.0002 -0.7809
vn -0.1044 -0.0027 -0.9945
vn 0.9956 0.0318 0.0877
vn 0.5647 0.0136 0.8252
vn -0.0761 0.0119 -0.9970
vn -0.8239 -0.0087 -0.5667
vn -0.1066 -0.0131 0.9942
vn -0.7045 -0.0051 0.7097
vn 0.7126 0.0391 -0.7004
vn -0.9938 -0.0079 0.1107
vn 0.7726 0.0766 0.6302
vn 0.9981 0.0611 0.0034
vn -0.7056 -0.0045 -0.7086
vn 0.0737 0.0690 0.9949
vn -0.7086 0.0474 0.7041
vn 0.7087 0.0261 -0.7050
vn -0.9999 0.0155 -0.0021
vn -0.7038 0.0012 -0.7104
vn 0.1069 -0.0097 -0.9942
vn 0.5692 0.0096 -0.8221
vn 0.9964 0.0311 -0.0785
vn 0.7064 -0.0092 -0.7078
vn 0.9942 -0.0203 -0.1056
vn 0.7051 -0.0049 0.7090
vn -0.0841 0.0575 0.9948
vn -0.1123 -0.0046 0.9937
vn 0.7036 0.0758 0.7065
vn -0.7131 0.0139 0.7010
vn -0.9951 0.0106 0.0985
vn -0.8257 0.0442 0.5624
vn -0.9828 0.0164 -0.1841
vn 0.9961 -0.0343 0.0809
vn 0.7109 -0.0096 -0.7032
vn 0.0052 0.0090 -0.9999
vn 0.0036 0.0022 -1.0000
vn -0.7037 0.0174 -0.7103
vn -0.7108 -0.0048 0.7034
vn 0.0737 -0.0289 0.9969
vn 0.7794 -0.0185 -0.6263
vn -0.9965 0.0106 -0.0832
vn 0.7042 -0.0391 0.7090
vn 0.7040 -0.0333 0.7094
vn 0.9996 -0.0280 0.0046
vn -0.7040 0.0175 -0.7100
vn -0.6517 -0.0088 0.7584
vn -0.0032 -0.0257 0.9997
vn -0.9946 0.0097 0.1029
vn 0.7099 0.0620 -0.7015
vn 0.7034 0.0510 0.7090
vn -0.7072 0.0629 0.7042
vn 0.0000 -0.3355 -0.9420
usemtl None.024
s 1
f 1/1/1 2/2/2 3/3/3
f 1/1/1 4/4/4 5/5/5
f 1/1/1 6/6/6 7/7/7
f 1/1/1 8/8/8 9/9/9
f 10/10/10 11/11/11 12/12/12
f 10/10/10 13/13/13 14/14/14
f 10/10/10 15/15/15 16/16/16
f 10/10/10 17/17/17 18/18/18
f 19/19/19 20/20/20 21/21/21
f 22/22/22 17/23/17 16/24/16
f 22/22/22 15/25/15 23/26/23
f 24/27/24 25/28/25 26/29/26
f 25/28/25 19/19/19 21/21/21
f 27/30/27 15/25/15 14/31/14
f 27/30/27 13/32/13 28/33/28
f 29/34/29 30/35/30 31/36/31
f 30/35/30 24/27/24 26/29/26
f 32/37/32 13/32/13 12/38/12
f 32/37/32 11/39/11 33/40/33
f 34/41/34 35/42/35 36/43/36
f 35/44/35 29/34/29 31/36/31
f 37/45/37 11/46/11 18/47/18
f 37/45/37 17/23/17 38/48/38
f 34/41/34 20/20/20 39/49/39
f 40/50/40 41/51/41 42/52/42
f 43/53/43 4/54/4 3/55/3
f 43/53/43 2/56/2 40/50/40
f 44/57/44 6/58/6 5/59/5
f 44/57/44 4/54/4 45/60/45
f 46/61/46 8/62/8 7/63/7
f 46/61/46 6/58/6 47/64/47
f 48/65/48 2/56/2 9/66/9
f 48/65/48 8/67/8 49/68/49
f 50/69/50 51/70/51 52/71/52
f 53/72/53 42/52/42 54/73/54
f 55/74/55 56/75/56 57/76/57
f 58/77/58 59/78/59 51/70/51
f 41/51/41 54/73/54 42/52/42
f 56/75/56 52/71/52 57/76/57
f 60/79/60 61/80/61 55/81/55
f 62/82/62 53/72/53 59/78/59
f 63/83/63 51/70/51 64/84/64
f 53/72/53 65/85/65 66/86/66
f 55/74/55 67/87/67 68/88/68
f 64/84/64 59/78/59 69/89/69
f 54/73/54 70/90/70 65/85/65
f 67/87/67 52/71/52 63/83/63
f 60/79/60 68/91/68 70/90/70
f 71/92/71 64/84/64 72/93/72
f 66/86/66 73/94/73 74/95/74
f 68/88/68 75/96/75 76/97/76
f 72/93/72 69/89/69 77/98/77
f 65/85/65 78/99/78 73/94/73
f 75/96/75 63/83/63 71/92/71
f 70/90/70 76/100/76 78/99/78
f 79/101/79 73/94/73 80/102/80
f 71/92/71 81/103/81 82/104/82
f 72/93/72 83/105/83 81/103/81
f 84/106/84 75/96/75 85/107/85
f 75/96/75 82/104/82 85/107/85
f 78/99/78 80/102/80 73/94/73
f 86/108/86 76/100/76 84/109/84
f 77/98/77 66/86/66 74/95/74
f 87/110/87 88/111/88 89/112/89
f 82/104/82 90/113/90 91/114/91
f 92/115/92 80/102/80 93/116/93
f 84/106/84 94/117/94 95/118/95
f 90/113/90 83/105/83 96/119/96
f 86/108/86 93/116/93 80/102/80
f 85/107/85 91/114/91 94/117/94
f 86/108/86 95/120/95 97/121/97
f 96/119/96 79/101/79 92/115/92
f 98/122/98 90/113/90 99/123/99
f 92/115/92 100/124/100 87/110/87
f 95/118/95 101/125/101 102/126/102
f 99/123/99 96/119/96 103/127/103
f 93/116/93 104/128/104 100/124/100
f 101/125/101 91/114/91 98/122/98
f 89/112/89 105/129/105 106/130/106
f 97/121/97 102/131/102 104/128/104
f 103/127/103 92/115/92 87/110/87
f 106/130/106 107/132/107 89/112/89
f 108/133/108 109/134/109 110/135/110
f 108/133/108 103/127/103 107/132/107
f 107/132/107 87/110/87 89/112/89
f 111/136/111 108/133/108 110/135/110
f 112/137/112 111/136/111 113/138/113
f 101/125/101 114/139/114 112/137/112
f 114/139/114 99/123/99 108/133/108
f 115/140/115 112/137/112 113/138/113
f 116/141/116 117/142/117 115/143/115
f 104/128/104 117/142/117 118/144/118
f 102/126/102 112/137/112 117/145/117
f 105/129/105 118/144/118 116/141/116
f 119/146/119 111/136/111 110/135/110
f 19/19/19 120/147/120 121/148/121
f 100/124/100 118/144/118 88/111/88
f 122/149/122 105/129/105 123/150/123
f 124/151/124 113/138/113 125/152/125
f 110/135/110 126/153/126 119/146/119
f 127/154/127 105/129/105 116/141/116
f 125/152/125 111/136/111 128/155/128
f 77/98/77 79/101/79 83/105/83
f 127/154/127 115/143/115 124/156/124
f 120/147/120 122/149/122 121/148/121
f 129/157/129 119/146/119 130/158/130
f 122/149/122 131/159/131 121/148/121
f 132/160/132 125/152/125 133/161/133
f 119/146/119 120/147/120 130/158/130
f 127/154/127 131/159/131 123/150/123
f 125/152/125 129/157/129 133/161/133
f 134/162/134 124/156/124 132/163/132
f 131/159/131 19/19/19 121/148/121
f 24/27/24 129/157/129 130/158/130
f 24/27/24 120/147/120 135/164/135
f 29/34/29 132/160/132 133/161/133
f 29/34/29 129/157/129 136/165/136
f 34/41/34 131/159/131 134/162/134
f 34/41/34 132/163/132 137/166/137
f 122/149/122 109/134/109 106/130/106
f 49/167/49 56/75/56 61/168/61
f 41/51/41 49/68/49 61/80/61
f 47/64/47 58/77/58 50/69/50
f 56/75/56 47/64/47 50/69/50
f 45/60/45 138/169/138 62/82/62
f 58/77/58 45/60/45 62/82/62
f 69/89/69 53/72/53 66/86/66
f 138/169/138 40/50/40 42/52/42
f 36/43/36 38/48/38 20/20/20
f 36/43/36 33/170/33 37/45/37
f 31/36/31 33/40/33 35/44/35
f 31/36/31 28/33/28 32/37/32
f 26/29/26 28/33/28 30/35/30
f 26/29/26 23/26/23 27/30/27
f 21/21/21 23/26/23 25/28/25
f 21/21/21 38/48/38 22/22/22
f 1/1/1 9/9/9 2/2/2
f 1/1/1 3/3/3 4/4/4
f 1/1/1 5/5/5 6/6/6
f 1/1/1 7/7/7 8/8/8
f 10/10/10 18/18/18 11/11/11
f 10/10/10 12/12/12 13/13/13
f 10/10/10 14/14/14 15/15/15
f 10/10/10 16/16/16 17/17/17
f 19/19/19 39/49/39 20/20/20
f 22/22/22 38/48/38 17/23/17
f 22/22/22 16/24/16 15/25/15
f 24/27/24 135/164/135 25/28/25
f 25/28/25 135/164/135 19/19/19
f 27/30/27 23/26/23 15/25/15
f 27/30/27 14/31/14 13/32/13
f 29/34/29 136/165/136 30/35/30
f 30/35/30 136/165/136 24/27/24
f 32/37/32 28/33/28 13/32/13
f 32/37/32 12/38/12 11/39/11
f 34/41/34 137/166/137 35/42/35
f 35/44/35 137/171/137 29/34/29
f 37/45/37 33/170/33 11/46/11
f 37/45/37 18/47/18 17/23/17
f 34/41/34 36/43/36 20/20/20
f 40/50/40 48/65/48 41/51/41
f 43/53/43 45/60/45 4/54/4
f 43/53/43 3/55/3 2/56/2
f 44/57/44 47/64/47 6/58/6
f 44/57/44 5/59/5 4/54/4
f 46/61/46 49/167/49 8/62/8
f 46/61/46 7/63/7 6/58/6
f 48/65/48 40/50/40 2/56/2
f 48/65/48 9/66/9 8/67/8
f 50/69/50 58/77/58 51/70/51
f 53/72/53 138/169/138 42/52/42
f 55/74/55 61/168/61 56/75/56
f 58/77/58 62/82/62 59/78/59
f 41/51/41 60/79/60 54/73/54
f 56/75/56 50/69/50 52/71/52
f 60/79/60 41/51/41 61/80/61
f 62/82/62 138/169/138 53/72/53
f 63/83/63 52/71/52 51/70/51
f 53/72/53 54/73/54 65/85/65
f 55/74/55 57/76/57 67/87/67
f 64/84/64 51/70/51 59/78/59
f 54/73/54 60/79/60 70/90/70
f 67/87/67 57/76/57 52/71/52
f 60/79/60 55/81/55 68/91/68
f 71/92/71 63/83/63 64/84/64
f 66/86/66 65/85/65 73/94/73
f 68/88/68 67/87/67 75/96/75
f 72/93/72 64/84/64 69/89/69
f 65/85/65 70/90/70 78/99/78
f 75/96/75 67/87/67 63/83/63
f 70/90/70 68/91/68 76/100/76
f 79/101/79 74/95/74 73/94/73
f 71/92/71 72/93/72 81/103/81
f 72/93/72 77/98/77 83/105/83
f 84/106/84 76/97/76 75/96/75
f 75/96/75 71/92/71 82/104/82
f 78/99/78 86/108/86 80/102/80
f 86/108/86 78/99/78 76/100/76
f 77/98/77 69/89/69 66/86/66
f 87/110/87 100/124/100 88/111/88
f 82/104/82 81/103/81 90/113/90
f 92/115/92 79/101/79 80/102/80
f 84/106/84 85/107/85 94/117/94
f 90/113/90 81/103/81 83/105/83
f 86/108/86 97/121/97 93/116/93
f 85/107/85 82/104/82 91/114/91
f 86/108/86 84/109/84 95/120/95
f 96/119/96 83/105/83 79/101/79
f 98/122/98 91/114/91 90/113/90
f 92/115/92 93/116/93 100/124/100
f 95/118/95 94/117/94 101/125/101
f 99/123/99 90/113/90 96/119/96
f 93/116/93 97/121/97 104/128/104
f 101/125/101 94/117/94 91/114/91
f 89/112/89 88/111/88 105/129/105
f 97/121/97 95/120/95 102/131/102
f 103/127/103 96/119/96 92/115/92
f 106/130/106 109/134/109 107/132/107
f 108/133/108 107/132/107 109/134/109
f 108/133/108 99/123/99 103/127/103
f 107/132/107 103/127/103 87/110/87
f 111/136/111 114/139/114 108/133/108
f 112/137/112 114/139/114 111/136/111
f 101/125/101 98/122/98 114/139/114
f 114/139/114 98/122/98 99/123/99
f 115/140/115 117/145/117 112/137/112
f 116/141/116 118/144/118 117/142/117
f 104/128/104 102/131/102 117/142/117
f 102/126/102 101/125/101 112/137/112
f 105/129/105 88/111/88 118/144/118
f 119/146/119 128/155/128 111/136/111
f 19/19/19 135/164/135 120/147/120
f 100/124/100 104/128/104 118/144/118
f 122/149/122 106/130/106 105/129/105
f 124/151/124 115/140/115 113/138/113
f 110/135/110 109/134/109 126/153/126
f 127/154/127 123/150/123 105/129/105
f 125/152/125 113/138/113 111/136/111
f 77/98/77 74/95/74 79/101/79
f 127/154/127 116/141/116 115/143/115
f 120/147/120 126/153/126 122/149/122
f 129/157/129 128/155/128 119/146/119
f 122/149/122 123/150/123 131/159/131
f 132/160/132 124/151/124 125/152/125
f 119/146/119 126/153/126 120/147/120
f 127/154/127 134/162/134 131/159/131
f 125/152/125 128/155/128 129/157/129
f 134/162/134 127/154/127 124/156/124
f 131/159/131 39/49/39 19/19/19
f 24/27/24 136/165/136 129/157/129
f 24/27/24 130/158/130 120/147/120
f 29/34/29 137/171/137 132/160/132
f 29/34/29 133/161/133 129/157/129
f 34/41/34 39/49/39 131/159/131
f 34/41/34 134/162/134 132/163/132
f 122/149/122 126/153/126 109/134/109
f 49/167/49 46/61/46 56/75/56
f 41/51/41 48/65/48 49/68/49
f 47/64/47 44/57/44 58/77/58
f 56/75/56 46/61/46 47/64/47
f 45/60/45 43/53/43 138/169/138
f 58/77/58 44/57/44 45/60/45
f 69/89/69 59/78/59 53/72/53
f 138/169/138 43/53/43 40/50/40
f 36/43/36 37/45/37 38/48/38
f 36/43/36 35/42/35 33/170/33
f 31/36/31 32/37/32 33/40/33
f 31/36/31 30/35/30 28/33/28
f 26/29/26 27/30/27 28/33/28
f 26/29/26 25/28/25 23/26/23
f 21/21/21 22/22/22 23/26/23
f 21/21/21 20/20/20 38/48/38
